<?xml version="1.0" standalone="no"?>
<!DOCTYPE svg PUBLIC "-//W3C//DTD SVG 20010904//EN"
 "http://www.w3.org/TR/2001/REC-SVG-20010904/DTD/svg10.dtd">
<svg version="1.0" xmlns="http://www.w3.org/2000/svg"
 width="544.000000pt" height="544.000000pt" viewBox="0 0 544.000000 544.000000"
 preserveAspectRatio="xMidYMid meet">
<metadata>
Created by potrace 1.11, written by Peter Selinger 2001-2013
</metadata>
<g transform="translate(0.000000,544.000000) scale(0.100000,-0.100000)"
fill="#000000" stroke="none">
<path d="M2310 4045 c-350 -59 -636 -271 -786 -582 -86 -179 -118 -315 -118
-503 0 -219 48 -380 172 -575 210 -332 536 -520 881 -510 102 3 147 11 274 46
128 35 148 38 247 43 184 9 341 -77 504 -279 173 -213 292 -247 420 -119 116
116 98 226 -57 366 -164 147 -209 194 -253 260 -101 151 -112 274 -49 518 32
125 40 185 39 305 0 162 -24 278 -85 414 -50 111 -160 264 -244 340 -150 135
-369 243 -560 276 -76 12 -309 13 -385 0z m375 -419 c133 -50 234 -118 323
-221 112 -127 171 -272 173 -420 2 -173 -69 -340 -202 -475 -285 -292 -681
-293 -961 -4 -187 193 -249 434 -172 664 75 221 300 425 524 475 95 21 228 13
315 -19z"/>
<path d="M2398 3411 c-287 -73 -429 -379 -301 -649 32 -69 129 -168 196 -201
401 -195 817 210 624 608 -93 192 -312 294 -519 242z m192 -286 l0 -75 75 0
76 0 -3 -82 -3 -83 -72 1 -73 1 0 -78 0 -78 -82 2 -83 2 2 67 c1 44 -2 70 -10
75 -7 4 -38 8 -69 9 -32 1 -63 2 -68 3 -7 1 -10 32 -8 81 l2 80 76 0 76 0 -1
68 c-1 37 0 70 2 75 2 4 40 7 84 7 l79 0 0 -75z"/>
</g>
</svg>
